<svg width="14" height="14" viewBox="0 0 14 14" fill="none" xmlns="http://www.w3.org/2000/svg">
<path d="M6.41667 11.0834H4.66667C4.51196 11.0834 4.36358 11.1449 4.25419 11.2543C4.14479 11.3637 4.08333 11.5121 4.08333 11.6668C4.08333 11.8215 4.14479 11.9699 4.25419 12.0793C4.36358 12.1886 4.51196 12.2501 4.66667 12.2501H6.41667C6.57138 12.2501 6.71975 12.1886 6.82915 12.0793C6.93854 11.9699 7 11.8215 7 11.6668C7 11.5121 6.93854 11.3637 6.82915 11.2543C6.71975 11.1449 6.57138 11.0834 6.41667 11.0834ZM11.6667 8.7501H10.99C11.3256 8.2261 11.5555 7.64152 11.6667 7.02927C11.6835 6.92941 11.6741 6.82687 11.6394 6.73175C11.6046 6.63663 11.5456 6.5522 11.4683 6.48677C11.3899 6.41777 11.2944 6.37108 11.1918 6.35158C11.0892 6.33208 10.9832 6.3405 10.885 6.37594C10.5243 6.49871 10.146 6.56176 9.765 6.5626C8.83349 6.56265 7.93961 6.19502 7.27767 5.53963C6.61573 4.88424 6.23922 3.99407 6.23 3.0626C6.2353 2.867 6.2548 2.67205 6.28833 2.47927C6.30347 2.3798 6.29263 2.27811 6.25685 2.18408C6.22108 2.09004 6.16159 2.00686 6.08417 1.9426C6.00518 1.87458 5.90942 1.82896 5.80683 1.8105C5.70424 1.79203 5.59858 1.80139 5.50083 1.8376C4.58443 2.15388 3.7882 2.7457 3.22117 3.53202C2.65414 4.31834 2.34404 5.26072 2.33333 6.2301C2.33391 7.12371 2.59104 7.99836 3.07417 8.7501H2.33333C2.17862 8.7501 2.03025 8.81156 1.92085 8.92096C1.81146 9.03036 1.75 9.17873 1.75 9.33344C1.75 9.48815 1.81146 9.63652 1.92085 9.74592C2.03025 9.85531 2.17862 9.91677 2.33333 9.91677H11.6667C11.8214 9.91677 11.9697 9.85531 12.0791 9.74592C12.1885 9.63652 12.25 9.48815 12.25 9.33344C12.25 9.17873 12.1885 9.03036 12.0791 8.92096C11.9697 8.81156 11.8214 8.7501 11.6667 8.7501ZM9.49667 8.7501H4.5675C4.18686 8.38515 3.8936 7.9389 3.70964 7.4447C3.52567 6.9505 3.45576 6.42111 3.50512 5.89609C3.55448 5.37107 3.72184 4.86399 3.99469 4.41274C4.26754 3.96148 4.63884 3.57771 5.08083 3.2901C5.14793 4.49001 5.67196 5.61867 6.54527 6.44425C7.41859 7.26983 8.57489 7.72965 9.77667 7.72927C9.93015 7.73795 10.084 7.73795 10.2375 7.72927C10.0535 8.11108 9.80262 8.45682 9.49667 8.7501ZM9.33333 11.0834H8.75C8.59529 11.0834 8.44692 11.1449 8.33752 11.2543C8.22812 11.3637 8.16667 11.5121 8.16667 11.6668C8.16667 11.8215 8.22812 11.9699 8.33752 12.0793C8.44692 12.1886 8.59529 12.2501 8.75 12.2501H9.33333C9.48804 12.2501 9.63642 12.1886 9.74581 12.0793C9.85521 11.9699 9.91667 11.8215 9.91667 11.6668C9.91667 11.5121 9.85521 11.3637 9.74581 11.2543C9.63642 11.1449 9.48804 11.0834 9.33333 11.0834Z" fill="#C204E1"/>
</svg>
