<svg width="328" height="147" viewBox="0 0 328 147" fill="none" xmlns="http://www.w3.org/2000/svg">
<rect x="0.75" y="0.0390625" width="327" height="146" rx="8" fill="white"/>
<rect x="1.25" y="0.539062" width="326" height="145" rx="7.5" stroke="black" stroke-opacity="0.1"/>
<path d="M13.7235 26.1651C13.2941 26.1651 12.8695 26.1184 12.4495 26.0251C12.0388 25.9317 11.6515 25.8011 11.2875 25.6331C10.9235 25.4557 10.6061 25.2411 10.3355 24.9891L10.7975 23.9811C11.2548 24.3451 11.7215 24.6157 12.1975 24.7931C12.6735 24.9611 13.1728 25.0451 13.6955 25.0451C14.3861 25.0451 14.9275 24.8631 15.3195 24.4991C15.7115 24.1351 15.9075 23.6497 15.9075 23.0431C15.9075 22.4177 15.7208 21.9137 15.3475 21.5311C14.9741 21.1391 14.4561 20.9431 13.7935 20.9431C13.3361 20.9431 12.9208 21.0364 12.5475 21.2231C12.1835 21.4004 11.8615 21.6851 11.5815 22.0771H10.6575V16.1691H16.5795V17.2751H11.9175V21.0131H11.5815C11.8335 20.6397 12.1741 20.3504 12.6035 20.1451C13.0421 19.9397 13.5321 19.8371 14.0735 19.8371C14.7081 19.8371 15.2541 19.9677 15.7115 20.2291C16.1781 20.4904 16.5375 20.8591 16.7895 21.3351C17.0508 21.8017 17.1815 22.3477 17.1815 22.9731C17.1815 23.5984 17.0415 24.1537 16.7615 24.6391C16.4815 25.1151 16.0801 25.4884 15.5575 25.7591C15.0441 26.0297 14.4328 26.1651 13.7235 26.1651Z" fill="#333333"/>
<path d="M28.7989 15.9661C29.0983 15.0448 30.4017 15.0448 30.7011 15.9661L31.3216 17.8759C31.4555 18.288 31.8394 18.5669 32.2727 18.5669H34.2808C35.2495 18.5669 35.6523 19.8065 34.8686 20.3759L33.244 21.5563C32.8935 21.8109 32.7468 22.2623 32.8807 22.6743L33.5012 24.5841C33.8006 25.5055 32.7461 26.2716 31.9624 25.7022L30.3378 24.5218C29.9873 24.2672 29.5127 24.2672 29.1622 24.5218L27.5376 25.7022C26.7539 26.2716 25.6994 25.5055 25.9988 24.5841L26.6193 22.6743C26.7532 22.2623 26.6065 21.8109 26.256 21.5563L24.6314 20.3759C23.8477 19.8065 24.2505 18.5669 25.2192 18.5669H27.2273C27.6606 18.5669 28.0445 18.288 28.1784 17.8759L28.7989 15.9661Z" fill="#E4A70A"/>
<rect x="41.75" y="18.0391" width="151" height="6" rx="3" fill="#FF725E"/>
<path d="M14.6615 52.0391V49.9531H10.0275V49.0151L14.8715 42.1691H15.9355V48.9171H17.4195V49.9531H15.9355V52.0391H14.6615ZM14.6615 48.9171V43.7091H14.9835L11.0775 49.2251V48.9171H14.6615Z" fill="#333333"/>
<path d="M28.7989 41.9661C29.0983 41.0448 30.4017 41.0448 30.7011 41.9661L31.3216 43.8759C31.4555 44.288 31.8394 44.5669 32.2727 44.5669H34.2808C35.2495 44.5669 35.6523 45.8065 34.8686 46.3759L33.244 47.5563C32.8935 47.8109 32.7468 48.2623 32.8807 48.6743L33.5012 50.5841C33.8006 51.5055 32.7461 52.2716 31.9624 51.7022L30.3378 50.5218C29.9873 50.2672 29.5127 50.2672 29.1622 50.5218L27.5376 51.7022C26.7539 52.2716 25.6994 51.5055 25.9988 50.5841L26.6193 48.6743C26.7532 48.2623 26.6065 47.8109 26.256 47.5563L24.6314 46.3759C23.8477 45.8065 24.2505 44.5669 25.2192 44.5669H27.2273C27.6606 44.5669 28.0445 44.288 28.1784 43.8759L28.7989 41.9661Z" fill="#E4A70A"/>
<rect x="41.75" y="44.0391" width="106" height="6" rx="3" fill="#FF725E"/>
<path d="M13.4855 78.1651C12.8135 78.1651 12.1695 78.0624 11.5535 77.8571C10.9468 77.6517 10.4381 77.3624 10.0275 76.9891L10.4895 75.9811C10.9468 76.3544 11.4181 76.6251 11.9035 76.7931C12.3888 76.9611 12.9021 77.0451 13.4435 77.0451C14.1621 77.0451 14.7081 76.8957 15.0815 76.5971C15.4548 76.2891 15.6415 75.8504 15.6415 75.2811C15.6415 74.7211 15.4501 74.2964 15.0675 74.0071C14.6941 73.7177 14.1435 73.5731 13.4155 73.5731H11.9035V72.4951H13.3175C13.9335 72.4951 14.4281 72.3364 14.8015 72.0191C15.1748 71.7017 15.3615 71.2677 15.3615 70.7171C15.3615 70.2131 15.1888 69.8304 14.8435 69.5691C14.5075 69.2984 14.0268 69.1631 13.4015 69.1631C12.3468 69.1631 11.4321 69.5317 10.6575 70.2691L10.1955 69.2751C10.5875 68.8831 11.0728 68.5797 11.6515 68.3651C12.2301 68.1504 12.8415 68.0431 13.4855 68.0431C14.4655 68.0431 15.2355 68.2671 15.7955 68.7151C16.3555 69.1631 16.6355 69.7884 16.6355 70.5911C16.6355 71.1977 16.4628 71.7204 16.1175 72.1591C15.7815 72.5884 15.3195 72.8731 14.7315 73.0131V72.8591C15.4221 72.9804 15.9588 73.2651 16.3415 73.7131C16.7241 74.1517 16.9155 74.7024 16.9155 75.3651C16.9155 76.2331 16.6075 76.9191 15.9915 77.4231C15.3848 77.9177 14.5495 78.1651 13.4855 78.1651Z" fill="#333333"/>
<path d="M28.7989 67.9661C29.0983 67.0448 30.4017 67.0448 30.7011 67.9661L31.3216 69.8759C31.4555 70.288 31.8394 70.5669 32.2727 70.5669H34.2808C35.2495 70.5669 35.6523 71.8065 34.8686 72.3759L33.244 73.5563C32.8935 73.8109 32.7468 74.2623 32.8807 74.6743L33.5012 76.5841C33.8006 77.5055 32.7461 78.2716 31.9624 77.7022L30.3378 76.5218C29.9873 76.2672 29.5127 76.2672 29.1622 76.5218L27.5376 77.7022C26.7539 78.2716 25.6994 77.5055 25.9988 76.5841L26.6193 74.6743C26.7532 74.2623 26.6065 73.8109 26.256 73.5563L24.6314 72.3759C23.8477 71.8065 24.2505 70.5669 25.2192 70.5669H27.2273C27.6606 70.5669 28.0445 70.288 28.1784 69.8759L28.7989 67.9661Z" fill="#E4A70A"/>
<rect x="41.75" y="70.0391" width="60" height="6" rx="3" fill="#FF725E"/>
<path d="M10.5455 104.039V103.073L13.9895 99.4611C14.4375 99.0037 14.7688 98.5651 14.9835 98.1451C15.2075 97.7251 15.3195 97.2911 15.3195 96.8431C15.3195 96.2924 15.1468 95.8771 14.8015 95.5971C14.4655 95.3077 13.9708 95.1631 13.3175 95.1631C12.8135 95.1631 12.3375 95.2564 11.8895 95.4431C11.4508 95.6204 11.0308 95.8957 10.6295 96.2691L10.1675 95.2751C10.5501 94.9017 11.0308 94.6031 11.6095 94.3791C12.1975 94.1551 12.8135 94.0431 13.4575 94.0431C14.4655 94.0431 15.2448 94.2764 15.7955 94.7431C16.3461 95.2004 16.6215 95.8584 16.6215 96.7171C16.6215 97.3424 16.4675 97.9397 16.1595 98.5091C15.8608 99.0691 15.4175 99.6477 14.8295 100.245L11.8195 103.297V102.933H17.0275V104.039H10.5455Z" fill="#333333"/>
<path d="M28.7989 93.9661C29.0983 93.0448 30.4017 93.0448 30.7011 93.9661L31.3216 95.8759C31.4555 96.288 31.8394 96.5669 32.2727 96.5669H34.2808C35.2495 96.5669 35.6523 97.8065 34.8686 98.3759L33.244 99.5563C32.8935 99.8109 32.7468 100.262 32.8807 100.674L33.5012 102.584C33.8006 103.505 32.7461 104.272 31.9624 103.702L30.3378 102.522C29.9873 102.267 29.5127 102.267 29.1622 102.522L27.5376 103.702C26.7539 104.272 25.6994 103.505 25.9988 102.584L26.6193 100.674C26.7532 100.262 26.6065 99.8109 26.256 99.5563L24.6314 98.3759C23.8477 97.8065 24.2505 96.5669 25.2192 96.5669H27.2273C27.6606 96.5669 28.0445 96.288 28.1784 95.8759L28.7989 93.9661Z" fill="#E4A70A"/>
<rect x="41.75" y="96.0391" width="19" height="6" rx="3" fill="#FF725E"/>
<path d="M11.0915 130.039V128.933H13.4015V121.275H14.0595L11.3015 122.983V121.709L13.7655 120.169H14.7035V128.933H16.8735V130.039H11.0915Z" fill="#333333"/>
<path d="M28.7989 119.966C29.0983 119.045 30.4017 119.045 30.7011 119.966L31.3216 121.876C31.4555 122.288 31.8394 122.567 32.2727 122.567H34.2808C35.2495 122.567 35.6523 123.807 34.8686 124.376L33.244 125.556C32.8935 125.811 32.7468 126.262 32.8807 126.674L33.5012 128.584C33.8006 129.505 32.7461 130.272 31.9624 129.702L30.3378 128.522C29.9873 128.267 29.5127 128.267 29.1622 128.522L27.5376 129.702C26.7539 130.272 25.6994 129.505 25.9988 128.584L26.6193 126.674C26.7532 126.262 26.6065 125.811 26.256 125.556L24.6314 124.376C23.8477 123.807 24.2505 122.567 25.2192 122.567H27.2273C27.6606 122.567 28.0445 122.288 28.1784 121.876L28.7989 119.966Z" fill="#E4A70A"/>
<rect x="41.75" y="122.039" width="6" height="6" rx="3" fill="#FF725E"/>
<path d="M276.899 52.0391V46.5191H264.299V42.9191L277.699 23.8391H281.859V42.5991H285.899V46.5191H281.859V52.0391H276.899ZM276.899 42.5991V29.9191H277.859L268.139 43.7991V42.5991H276.899ZM288.404 52.0391V46.4791H294.004V52.0391H288.404ZM307.766 52.4391C304.459 52.4391 301.912 51.1857 300.126 48.6791C298.339 46.1457 297.446 42.5457 297.446 37.8791C297.446 33.1591 298.339 29.5724 300.126 27.1191C301.912 24.6657 304.459 23.4391 307.766 23.4391C311.099 23.4391 313.646 24.6657 315.406 27.1191C317.192 29.5724 318.086 33.1457 318.086 37.8391C318.086 42.5324 317.192 46.1457 315.406 48.6791C313.646 51.1857 311.099 52.4391 307.766 52.4391ZM307.766 48.1991C309.579 48.1991 310.926 47.3724 311.806 45.7191C312.686 44.0391 313.126 41.4124 313.126 37.8391C313.126 34.2657 312.686 31.6791 311.806 30.0791C310.926 28.4524 309.579 27.6391 307.766 27.6391C305.979 27.6391 304.632 28.4524 303.726 30.0791C302.846 31.6791 302.406 34.2657 302.406 37.8391C302.406 41.4124 302.846 44.0391 303.726 45.7191C304.632 47.3724 305.979 48.1991 307.766 48.1991Z" fill="#333333"/>
<path d="M230.799 72.9661C231.098 72.0448 232.402 72.0448 232.701 72.9661L233.322 74.8759C233.455 75.288 233.839 75.5669 234.273 75.5669H236.281C237.249 75.5669 237.652 76.8065 236.869 77.3759L235.244 78.5563C234.893 78.8109 234.747 79.2623 234.881 79.6743L235.501 81.5841C235.801 82.5055 234.746 83.2716 233.962 82.7022L232.338 81.5218C231.987 81.2672 231.513 81.2672 231.162 81.5218L229.538 82.7022C228.754 83.2716 227.699 82.5055 227.999 81.5841L228.619 79.6743C228.753 79.2623 228.607 78.8109 228.256 78.5563L226.631 77.3759C225.848 76.8065 226.251 75.5669 227.219 75.5669H229.227C229.661 75.5669 230.045 75.288 230.178 74.8759L230.799 72.9661Z" fill="#E4A70A"/>
<path d="M250.799 72.9661C251.098 72.0448 252.402 72.0448 252.701 72.9661L253.322 74.8759C253.455 75.288 253.839 75.5669 254.273 75.5669H256.281C257.249 75.5669 257.652 76.8065 256.869 77.3759L255.244 78.5563C254.893 78.8109 254.747 79.2623 254.881 79.6743L255.501 81.5841C255.801 82.5055 254.746 83.2716 253.962 82.7022L252.338 81.5218C251.987 81.2672 251.513 81.2672 251.162 81.5218L249.538 82.7022C248.754 83.2716 247.699 82.5055 247.999 81.5841L248.619 79.6743C248.753 79.2623 248.607 78.8109 248.256 78.5563L246.631 77.3759C245.848 76.8065 246.251 75.5669 247.219 75.5669H249.227C249.661 75.5669 250.045 75.288 250.178 74.8759L250.799 72.9661Z" fill="#E4A70A"/>
<path d="M270.799 72.9661C271.098 72.0448 272.402 72.0448 272.701 72.9661L273.322 74.8759C273.455 75.288 273.839 75.5669 274.273 75.5669H276.281C277.249 75.5669 277.652 76.8065 276.869 77.3759L275.244 78.5563C274.893 78.8109 274.747 79.2623 274.881 79.6743L275.501 81.5841C275.801 82.5055 274.746 83.2716 273.962 82.7022L272.338 81.5218C271.987 81.2672 271.513 81.2672 271.162 81.5218L269.538 82.7022C268.754 83.2716 267.699 82.5055 267.999 81.5841L268.619 79.6743C268.753 79.2623 268.607 78.8109 268.256 78.5563L266.631 77.3759C265.848 76.8065 266.251 75.5669 267.219 75.5669H269.227C269.661 75.5669 270.045 75.288 270.178 74.8759L270.799 72.9661Z" fill="#E4A70A"/>
<path d="M290.799 72.9661C291.098 72.0448 292.402 72.0448 292.701 72.9661L293.322 74.8759C293.455 75.288 293.839 75.5669 294.273 75.5669H296.281C297.249 75.5669 297.652 76.8065 296.869 77.3759L295.244 78.5563C294.893 78.8109 294.747 79.2623 294.881 79.6743L295.501 81.5841C295.801 82.5055 294.746 83.2716 293.962 82.7022L292.338 81.5218C291.987 81.2672 291.513 81.2672 291.162 81.5218L289.538 82.7022C288.754 83.2716 287.699 82.5055 287.999 81.5841L288.619 79.6743C288.753 79.2623 288.607 78.8109 288.256 78.5563L286.631 77.3759C285.848 76.8065 286.251 75.5669 287.219 75.5669H289.227C289.661 75.5669 290.045 75.288 290.178 74.8759L290.799 72.9661Z" fill="#E4A70A"/>
<path d="M310.799 72.9661C311.098 72.0448 312.402 72.0448 312.701 72.9661L313.322 74.8759C313.455 75.288 313.839 75.5669 314.273 75.5669H316.281C317.249 75.5669 317.652 76.8065 316.869 77.3759L315.244 78.5563C314.893 78.8109 314.747 79.2623 314.881 79.6743L315.501 81.5841C315.801 82.5055 314.746 83.2716 313.962 82.7022L312.338 81.5218C311.987 81.2672 311.513 81.2672 311.162 81.5218L309.538 82.7022C308.754 83.2716 307.699 82.5055 307.999 81.5841L308.619 79.6743C308.753 79.2623 308.607 78.8109 308.256 78.5563L306.631 77.3759C305.848 76.8065 306.251 75.5669 307.219 75.5669H309.227C309.661 75.5669 310.045 75.288 310.178 74.8759L310.799 72.9661Z" fill="#DDDDDD"/>
<path d="M250.045 108.165C249.616 108.165 249.191 108.118 248.771 108.025C248.351 107.932 247.959 107.801 247.595 107.633C247.231 107.456 246.914 107.246 246.643 107.003L247.147 105.897C247.595 106.242 248.053 106.504 248.519 106.681C248.995 106.849 249.495 106.933 250.017 106.933C250.68 106.933 251.198 106.76 251.571 106.415C251.954 106.07 252.145 105.608 252.145 105.029C252.145 104.432 251.963 103.951 251.599 103.587C251.245 103.214 250.75 103.027 250.115 103.027C249.677 103.027 249.275 103.116 248.911 103.293C248.557 103.47 248.244 103.741 247.973 104.105H246.965V98.1691H252.943V99.3871H248.351V102.943H247.987C248.239 102.588 248.575 102.313 248.995 102.117C249.425 101.921 249.905 101.823 250.437 101.823C251.072 101.823 251.623 101.954 252.089 102.215C252.556 102.476 252.915 102.84 253.167 103.307C253.429 103.774 253.559 104.324 253.559 104.959C253.559 105.594 253.415 106.154 253.125 106.639C252.845 107.115 252.439 107.488 251.907 107.759C251.385 108.03 250.764 108.165 250.045 108.165ZM255.122 108.039V106.961L258.51 103.419C258.949 102.962 259.275 102.532 259.49 102.131C259.705 101.73 259.812 101.314 259.812 100.885C259.812 100.353 259.644 99.9517 259.308 99.6811C258.981 99.4104 258.505 99.2751 257.88 99.2751C257.385 99.2751 256.919 99.3637 256.48 99.5411C256.051 99.7184 255.635 99.9891 255.234 100.353L254.73 99.2471C255.122 98.8831 255.607 98.5937 256.186 98.3791C256.774 98.1551 257.395 98.0431 258.048 98.0431C259.075 98.0431 259.863 98.2764 260.414 98.7431C260.974 99.2097 261.254 99.8771 261.254 100.745C261.254 101.361 261.105 101.954 260.806 102.523C260.507 103.083 260.059 103.662 259.462 104.259L256.536 107.213V106.821H261.66V108.039H255.122ZM266.969 108.039V98.1691H271.141C272.195 98.1691 273.012 98.4211 273.591 98.9251C274.169 99.4197 274.459 100.115 274.459 101.011C274.459 101.599 274.328 102.103 274.067 102.523C273.805 102.943 273.437 103.265 272.961 103.489C272.485 103.704 271.925 103.811 271.281 103.811L271.505 103.587H271.883C272.265 103.587 272.606 103.685 272.905 103.881C273.213 104.077 273.465 104.39 273.661 104.819L275.075 108.039H273.479L272.079 104.805C271.939 104.422 271.719 104.175 271.421 104.063C271.131 103.951 270.772 103.895 270.343 103.895H268.425V108.039H266.969ZM268.425 102.789H270.903C271.603 102.789 272.13 102.64 272.485 102.341C272.849 102.042 273.031 101.613 273.031 101.053C273.031 100.484 272.849 100.054 272.485 99.7651C272.13 99.4757 271.603 99.3311 270.903 99.3311H268.425V102.789ZM279.562 108.165C278.424 108.165 277.528 107.843 276.874 107.199C276.221 106.555 275.894 105.664 275.894 104.525C275.894 103.788 276.034 103.144 276.314 102.593C276.604 102.042 277 101.618 277.504 101.319C278.018 101.011 278.61 100.857 279.282 100.857C279.945 100.857 280.5 100.997 280.948 101.277C281.396 101.557 281.737 101.954 281.97 102.467C282.204 102.971 282.32 103.568 282.32 104.259V104.707H277V103.895H281.354L281.116 104.077C281.116 103.377 280.958 102.836 280.64 102.453C280.332 102.061 279.884 101.865 279.296 101.865C278.643 101.865 278.139 102.094 277.784 102.551C277.43 102.999 277.252 103.62 277.252 104.413V104.553C277.252 105.384 277.453 106.009 277.854 106.429C278.265 106.849 278.844 107.059 279.59 107.059C280.001 107.059 280.384 107.003 280.738 106.891C281.102 106.77 281.448 106.574 281.774 106.303L282.236 107.269C281.91 107.558 281.513 107.782 281.046 107.941C280.58 108.09 280.085 108.165 279.562 108.165ZM285.779 108.039L282.755 100.983H284.267L286.647 106.877H286.241L288.663 100.983H290.105L287.067 108.039H285.779ZM291.087 108.039V100.983H292.501V108.039H291.087ZM290.975 99.5131V98.0431H292.613V99.5131H290.975ZM297.695 108.165C296.557 108.165 295.661 107.843 295.007 107.199C294.354 106.555 294.027 105.664 294.027 104.525C294.027 103.788 294.167 103.144 294.447 102.593C294.737 102.042 295.133 101.618 295.637 101.319C296.151 101.011 296.743 100.857 297.415 100.857C298.078 100.857 298.633 100.997 299.081 101.277C299.529 101.557 299.87 101.954 300.103 102.467C300.337 102.971 300.453 103.568 300.453 104.259V104.707H295.133V103.895H299.487L299.249 104.077C299.249 103.377 299.091 102.836 298.773 102.453C298.465 102.061 298.017 101.865 297.429 101.865C296.776 101.865 296.272 102.094 295.917 102.551C295.563 102.999 295.385 103.62 295.385 104.413V104.553C295.385 105.384 295.586 106.009 295.987 106.429C296.398 106.849 296.977 107.059 297.723 107.059C298.134 107.059 298.517 107.003 298.871 106.891C299.235 106.77 299.581 106.574 299.907 106.303L300.369 107.269C300.043 107.558 299.646 107.782 299.179 107.941C298.713 108.09 298.218 108.165 297.695 108.165ZM303.758 108.039L301.084 100.983H302.554L304.64 106.863H304.276L306.418 100.983H307.51L309.638 106.863H309.288L311.374 100.983H312.788L310.1 108.039H308.812L306.6 102.047H307.258L305.074 108.039H303.758ZM316.235 108.165C315.647 108.165 315.106 108.09 314.611 107.941C314.117 107.792 313.706 107.582 313.379 107.311L313.813 106.345C314.159 106.606 314.541 106.802 314.961 106.933C315.381 107.064 315.811 107.129 316.249 107.129C316.763 107.129 317.15 107.04 317.411 106.863C317.673 106.676 317.803 106.424 317.803 106.107C317.803 105.864 317.719 105.668 317.551 105.519C317.393 105.37 317.127 105.258 316.753 105.183L315.409 104.917C314.812 104.786 314.359 104.562 314.051 104.245C313.743 103.928 313.589 103.522 313.589 103.027C313.589 102.607 313.701 102.234 313.925 101.907C314.159 101.58 314.485 101.324 314.905 101.137C315.335 100.95 315.834 100.857 316.403 100.857C316.926 100.857 317.411 100.932 317.859 101.081C318.307 101.23 318.681 101.445 318.979 101.725L318.531 102.663C318.242 102.42 317.915 102.234 317.551 102.103C317.187 101.963 316.819 101.893 316.445 101.893C315.923 101.893 315.535 101.991 315.283 102.187C315.031 102.383 314.905 102.64 314.905 102.957C314.905 103.2 314.98 103.4 315.129 103.559C315.288 103.708 315.535 103.825 315.871 103.909L317.215 104.175C317.85 104.306 318.326 104.52 318.643 104.819C318.961 105.118 319.119 105.519 319.119 106.023C319.119 106.462 318.998 106.844 318.755 107.171C318.513 107.498 318.177 107.745 317.747 107.913C317.318 108.081 316.814 108.165 316.235 108.165Z" fill="#333333"/>
</svg>
