<svg width="13" height="12" viewBox="0 0 13 12" fill="none" xmlns="http://www.w3.org/2000/svg">
<path d="M12.8333 8.33333C12.8333 8.48804 12.7719 8.63642 12.6625 8.74581C12.5531 8.85521 12.4047 8.91667 12.25 8.91667H0.583333C0.428624 8.91667 0.280251 8.85521 0.170854 8.74581C0.0614581 8.63642 0 8.48804 0 8.33333C0 8.17862 0.0614581 8.03025 0.170854 7.92085C0.280251 7.81146 0.428624 7.75 0.583333 7.75H12.25C12.4047 7.75 12.5531 7.81146 12.6625 7.92085C12.7719 8.03025 12.8333 8.17862 12.8333 8.33333ZM9.91667 11.25C10.0714 11.25 10.2197 11.1885 10.3291 11.0791C10.4385 10.9697 10.5 10.8214 10.5 10.6667C10.5 10.512 10.4385 10.3636 10.3291 10.2542C10.2197 10.1448 10.0714 10.0833 9.91667 10.0833H2.91667C2.76196 10.0833 2.61358 10.1448 2.50419 10.2542C2.39479 10.3636 2.33333 10.512 2.33333 10.6667C2.33333 10.8214 2.39479 10.9697 2.50419 11.0791C2.61358 11.1885 2.76196 11.25 2.91667 11.25H9.91667ZM3.5 6C3.5 6.15471 3.56146 6.30308 3.67085 6.41248C3.78025 6.52187 3.92862 6.58333 4.08333 6.58333C4.23804 6.58333 4.38642 6.52187 4.49581 6.41248C4.60521 6.30308 4.66667 6.15471 4.66667 6C4.66667 5.53587 4.85104 5.09075 5.17923 4.76256C5.50742 4.43437 5.95254 4.25 6.41667 4.25C6.8808 4.25 7.32591 4.43437 7.6541 4.76256C7.98229 5.09075 8.16667 5.53587 8.16667 6C8.16667 6.15471 8.22812 6.30308 8.33752 6.41248C8.44692 6.52187 8.59529 6.58333 8.75 6.58333C8.90471 6.58333 9.05308 6.52187 9.16248 6.41248C9.27188 6.30308 9.33333 6.15471 9.33333 6C9.33333 5.22645 9.02604 4.48459 8.47906 3.93761C7.93208 3.39062 7.19021 3.08333 6.41667 3.08333C5.64312 3.08333 4.90125 3.39062 4.35427 3.93761C3.80729 4.48459 3.5 5.22645 3.5 6ZM5.83333 1.91667C5.83333 2.07138 5.89479 2.21975 6.00419 2.32915C6.11358 2.43854 6.26196 2.5 6.41667 2.5C6.57138 2.5 6.71975 2.43854 6.82915 2.32915C6.93854 2.21975 7 2.07138 7 1.91667V1.33333C7 1.17862 6.93854 1.03025 6.82915 0.920854C6.71975 0.811458 6.57138 0.75 6.41667 0.75C6.26196 0.75 6.11358 0.811458 6.00419 0.920854C5.89479 1.03025 5.83333 1.17862 5.83333 1.33333V1.91667ZM9.91667 6C9.91667 6.15471 9.97812 6.30308 10.0875 6.41248C10.1969 6.52187 10.3453 6.58333 10.5 6.58333H11.0833C11.238 6.58333 11.3864 6.52187 11.4958 6.41248C11.6052 6.30308 11.6667 6.15471 11.6667 6C11.6667 5.84529 11.6052 5.69692 11.4958 5.58752C11.3864 5.47812 11.238 5.41667 11.0833 5.41667H10.5C10.3453 5.41667 10.1969 5.47812 10.0875 5.58752C9.97812 5.69692 9.91667 5.84529 9.91667 6ZM1.75 5.41667C1.59529 5.41667 1.44692 5.47812 1.33752 5.58752C1.22812 5.69692 1.16667 5.84529 1.16667 6C1.16667 6.15471 1.22812 6.30308 1.33752 6.41248C1.44692 6.52187 1.59529 6.58333 1.75 6.58333H2.33333C2.48804 6.58333 2.63642 6.52187 2.74581 6.41248C2.85521 6.30308 2.91667 6.15471 2.91667 6C2.91667 5.84529 2.85521 5.69692 2.74581 5.58752C2.63642 5.47812 2.48804 5.41667 2.33333 5.41667H1.75ZM2.70433 2.28767C2.59498 2.39706 2.53354 2.5454 2.53354 2.70008C2.53354 2.85476 2.59498 3.00311 2.70433 3.1125L3.11675 3.52492C3.22677 3.63118 3.37412 3.68997 3.52707 3.68864C3.68002 3.68731 3.82632 3.62597 3.93448 3.51781C4.04263 3.40966 4.10398 3.26335 4.10531 3.1104C4.10664 2.95745 4.04784 2.8101 3.94158 2.70008L3.52917 2.28767C3.41978 2.17831 3.27143 2.11687 3.11675 2.11687C2.96207 2.11687 2.81372 2.17831 2.70433 2.28767ZM9.30417 2.28767L8.89175 2.70008C8.83604 2.75389 8.7916 2.81826 8.76102 2.88943C8.73045 2.9606 8.71436 3.03714 8.71369 3.1146C8.71301 3.19205 8.72777 3.26887 8.7571 3.34056C8.78643 3.41225 8.82975 3.47738 8.88452 3.53215C8.93929 3.58692 9.00442 3.63023 9.07611 3.65956C9.1478 3.68889 9.22461 3.70365 9.30207 3.70298C9.37952 3.70231 9.45607 3.68621 9.52724 3.65564C9.5984 3.62507 9.66277 3.58063 9.71658 3.52492L10.129 3.1125C10.1847 3.05869 10.2292 2.99432 10.2597 2.92315C10.2903 2.85198 10.3064 2.77544 10.3071 2.69798C10.3077 2.62053 10.293 2.54372 10.2636 2.47203C10.2343 2.40034 10.191 2.33521 10.1362 2.28044C10.0815 2.22567 10.0163 2.18235 9.94464 2.15302C9.87295 2.12369 9.79614 2.10893 9.71868 2.1096C9.64123 2.11028 9.56468 2.12637 9.49351 2.15694C9.42234 2.18751 9.35798 2.23195 9.30417 2.28767Z" fill="#FF725E"/>
</svg>
