<svg width="15" height="14" viewBox="0 0 15 14" fill="none" xmlns="http://www.w3.org/2000/svg">
<g clip-path="url(#clip0_392_1663)">
<path fill-rule="evenodd" clip-rule="evenodd" d="M13.9007 10.7335H1.76732C1.50972 10.7335 1.30065 10.9425 1.30065 11.2001C1.30065 11.4582 1.50972 11.6668 1.76732 11.6668H13.9007C14.1583 11.6668 14.3673 11.4582 14.3673 11.2001C14.3673 10.9425 14.1583 10.7335 13.9007 10.7335ZM2.23398 4.39333C2.41645 4.5758 2.71185 4.5758 2.89385 4.39333C3.07632 4.21086 3.07632 3.91593 2.89385 3.73346L2.23398 3.0736C2.05152 2.89113 1.75658 2.89113 1.57412 3.0736C1.39165 3.25606 1.39165 3.551 1.57412 3.73346L2.23398 4.39333ZM14.3673 8.8668H1.30065C1.04305 8.8668 0.833984 9.0754 0.833984 9.33346C0.833984 9.59153 1.04305 9.80013 1.30065 9.80013H14.3673C14.6249 9.80013 14.834 9.59153 14.834 9.33346C14.834 9.0754 14.6249 8.8668 14.3673 8.8668ZM12.5007 12.6001H3.16732C2.90972 12.6001 2.70065 12.8092 2.70065 13.0668C2.70065 13.3249 2.90972 13.5335 3.16732 13.5335H12.5007C12.7583 13.5335 12.9673 13.3249 12.9673 13.0668C12.9673 12.8092 12.7583 12.6001 12.5007 12.6001ZM7.83398 2.33346C8.09158 2.33346 8.30065 2.12486 8.30065 1.8668V0.933464C8.30065 0.675397 8.09158 0.466797 7.83398 0.466797C7.57638 0.466797 7.36732 0.675397 7.36732 0.933464V1.8668C7.36732 2.12486 7.57638 2.33346 7.83398 2.33346ZM13.434 4.39333L14.0939 3.73346C14.2763 3.551 14.2763 3.25606 14.0939 3.0736C13.9119 2.89113 13.6165 2.89113 13.434 3.0736L12.7741 3.73346C12.5917 3.91593 12.5917 4.21086 12.7741 4.39333C12.9566 4.5758 13.2515 4.5758 13.434 4.39333ZM3.26905 7.93346C3.70211 5.80453 5.57578 4.20013 7.83398 4.20013C10.0922 4.20013 11.9659 5.80453 12.3989 7.93346H13.3808C13.0224 5.301 10.6788 3.2668 7.83398 3.2668C4.98918 3.2668 2.64559 5.301 2.28719 7.93346H3.26905Z" fill="#FFCE0E"/>
</g>
<defs>
<clipPath id="clip0_392_1663">
<rect width="14" height="14" fill="white" transform="translate(0.833984)"/>
</clipPath>
</defs>
</svg>
