<svg width="20" height="22" viewBox="0 0 20 22" fill="none" xmlns="http://www.w3.org/2000/svg">
<path d="M10.0023 0.5C4.47807 0.5 0.0022583 5.1996 0.0022583 11C0.0022583 16.8004 4.47807 21.5 10.0023 21.5C15.5265 21.5 20.0023 16.8004 20.0023 11C20.0023 5.1996 15.5265 0.5 10.0023 0.5ZM12.3047 15.3228L8.74823 12.6089C8.62323 12.5115 8.55064 12.3591 8.55064 12.1982V5.07258C8.55064 4.79315 8.76839 4.56452 9.03452 4.56452H10.97C11.2361 4.56452 11.4539 4.79315 11.4539 5.07258V10.9026L14.0144 12.8587C14.2321 13.0238 14.2765 13.3413 14.1192 13.57L12.9821 15.2127C12.8248 15.4371 12.5224 15.4879 12.3047 15.3228Z" fill="#FF725E"/>
</svg>
